<?xml version="1.0" encoding="UTF-8"?>
<svg width="22px" height="22px" viewBox="0 0 22 22" version="1.1" xmlns="http://www.w3.org/2000/svg" xmlns:xlink="http://www.w3.org/1999/xlink">
    <!-- Generator: Sketch 62 (91390) - https://sketch.com -->
    <title>c</title>
    <desc>Created with Sketch.</desc>
    <g id="Page-1" stroke="none" stroke-width="1" fill="none" fill-rule="evenodd">
        <path d="M10.9999738,21.4062443 C16.8852518,21.4062443 21.6561984,16.6352977 21.6561984,10.7500197 C21.6561984,4.86474165 16.8852518,0.093795076 10.9999738,0.093795076 C5.11469575,0.093795076 0.34374918,4.86474165 0.34374918,10.7500197 C0.34374918,16.6352977 5.11469575,21.4062443 10.9999738,21.4062443 Z M8.79506112,16.3923822 L4.32632178,11.9236428 C4.05789361,11.6551727 4.05789361,11.2198214 4.32632178,10.9513513 L5.29861331,9.97910171 C5.56708344,9.71063158 6.00243472,9.71063158 6.27090485,9.97910171 L9.28122787,12.9894667 L15.7290427,6.54165186 C15.9975548,6.27313978 16.4329061,6.27313978 16.7013342,6.54165186 L17.6736258,7.51390144 C17.9420539,7.78237156 17.9420539,8.21772285 17.6736258,8.48619297 L9.76739462,16.3924241 C9.49888253,16.6608523 9.06357321,16.6608523 8.79506112,16.3923822 Z" id="c" fill="#202529" fill-rule="nonzero"></path>
    </g>
</svg>